# xmcd CD database file
#
# Track frame offsets:
#	150
#	23029
#	39277
#	60184
#	79654
#	96954
#	116402
#	136540
#	153085
#	183243
#	207949
#	233936
#	260798
#	281954
#
# Disc length: 4249 seconds
#
# Revision: 0
# Processed by: cddbd v1.5.2PL0 Copyright (c) Steve Scherf et al.
# Submitted via: CDex 1.51
#
DISCID=b010970e
DTITLE=Erroll Garner - The 1956 Studio Sessions [CD1]
DYEAR=1900
DGENRE=Jazz
TTITLE0=Rose Room
TTITLE1=But Not For Me
TTITLE2=My Silent Love
TTITLE3=Full Moon and Empty Arms
TTITLE4=Some Of These Days
TTITLE5=Time On My Hands
TTITLE6=Girl Of My Dreams
TTITLE7=Alexander's Ragtime Band
TTITLE8=If It's The Last Thing I Do
TTITLE9=After I Say I'm Sorry
TTITLE10=I Got It Bad (And That Ain't Good)
TTITLE11=Ol' Man River
TTITLE12=Them There Eyes
TTITLE13=The Man I love
EXTD=
EXTT0=
EXTT1=
EXTT2=
EXTT3=
EXTT4=
EXTT5=
EXTT6=
EXTT7=
EXTT8=
EXTT9=
EXTT10=
EXTT11=
EXTT12=
EXTT13=
PLAYORDER=
